# xmcd
#
# Track frame offsets:
#        150
#        22837
#        28447
#        40017
#        44275
#        67347
#        76355
#        84522
#        92052
#        103622
#        120665
#        125637
#        132630
#        154680
#        161072
#        167985
#        175115
#        197755
#
# Disc length: 3250 seconds
#
# Revision: 5
# Processed by: cddbd v1.5.1PL2 Copyright (c) Steve Scherf et al.
# Submitted via: ExactAudioCopy v0.95b2
#
DISCID=f70cb012
DTITLE=Various Artist - Dobermann
DYEAR=1997
DGENRE=Soundtrack
TTITLE0=Schyzomaniac - Bienvenue dans le kaos
TTITLE1=Schyzomaniac - Mad dog
TTITLE2=Schyzomaniac - Godzilla
TTITLE3=Schyzomaniac - Vivant (alternative scanner)
TTITLE4=Schyzomaniac - Feel Hot
TTITLE5=Schyzomaniac - Les survivants
TTITLE6=Schyzomaniac - Dump sucker and torpido
TTITLE7=Schyzomaniac - Keufs in trouble
TTITLE8=Schyzomaniac - Le ragga de moustik
TTITLE9=Schyzomaniac - Drunk pack
TTITLE10=Schyzomaniac - Woosh!!
TTITLE11=Schyzomaniac - Bang...
TTITLE12=Schyzomaniac - Music box
TTITLE13=Schyzomaniac - Le bapteme
TTITLE14=Schyzomaniac - The crusade (alternative motard)
TTITLE15=Schyzomaniac - Born to be dead
TTITLE16=Schyzomaniac - Higher
TTITLE17=Prodigy - Voodoo People
EXTD=YEAR: 1997
EXTT0=
EXTT1=
EXTT2=
EXTT3=
EXTT4=
EXTT5=
EXTT6=
EXTT7=
EXTT8=
EXTT9=
EXTT10=
EXTT11=
EXTT12=
EXTT13=
EXTT14=
EXTT15=
EXTT16=
EXTT17=
PLAYORDER=
